<svg width="125" height="29" viewBox="0 0 125 29" fill="none" xmlns="http://www.w3.org/2000/svg">
<path d="M20.9506 6.8C20.0706 6.69333 18.524 6.54667 16.3106 6.36C15.084 6.30667 14.0973 6.28 13.3506 6.28C12.3906 6.28 11.484 6.30667 10.6306 6.36V0.159998H11.6306C13.8173 0.159998 16.084 0.306665 18.4306 0.599998C19.1773 0.706664 20.0173 0.853332 20.9506 1.04V6.8ZM14.3506 19.88C14.3506 19.32 14.3106 18.92 14.2306 18.68C14.1506 18.4133 14.0173 18.24 13.8306 18.16C13.644 18.0533 13.324 17.9733 12.8706 17.92L7.95063 17.32C5.04396 17 3.08396 16.0533 2.07063 14.48C1.61729 13.8133 1.31063 13 1.15063 12.04C0.990625 11.08 0.910625 9.90667 0.910625 8.52C0.910625 5.56 1.67063 3.42667 3.19063 2.12C4.41729 1.05333 6.33729 0.426666 8.95063 0.24V8.28C8.95063 8.62667 8.96396 8.92 8.99063 9.16C9.01729 9.4 9.07063 9.58667 9.15063 9.72C9.23063 9.88 9.36396 10 9.55063 10.08C9.73729 10.1333 10.0173 10.1733 10.3906 10.2L15.9106 10.88C17.0573 11.04 17.9906 11.24 18.7106 11.48C19.4306 11.72 20.044 12.0933 20.5506 12.6C21.7506 13.8533 22.3506 16.08 22.3506 19.28C22.3506 22.6667 21.604 25.04 20.1106 26.4C19.444 27.0133 18.6306 27.4667 17.6706 27.76C16.7373 28.0267 15.6306 28.2 14.3506 28.28V19.88ZM12.2306 28.32C9.56396 28.32 7.08396 28.2 4.79063 27.96C3.43063 27.8267 2.40396 27.6933 1.71063 27.56V21.72C3.28396 21.8533 5.08396 21.9867 7.11063 22.12C8.39063 22.1733 9.29729 22.2 9.83063 22.2C11.2706 22.2 12.2173 22.16 12.6706 22.08V28.32H12.2306ZM24.2428 0.479999H46.7628V6.88H24.2428V0.479999ZM31.4828 8.48H39.4828V28H31.4828V8.48ZM65.005 14.24C65.005 11.92 64.9917 10.4 64.965 9.68C64.9117 8.58667 64.765 7.8 64.525 7.32C64.285 6.81333 63.8983 6.50667 63.365 6.4C62.8317 6.32 62.0717 6.28 61.085 6.28C59.9383 6.28 59.1917 6.33333 58.845 6.44V0.199998C59.085 0.173332 59.445 0.159998 59.925 0.159998H61.085C64.0717 0.159998 66.3783 0.399999 68.005 0.879999C69.6583 1.33333 70.8583 2.09333 71.605 3.16C72.2983 4.14666 72.725 5.44 72.885 7.04C73.0717 8.64 73.165 11.04 73.165 14.24C73.165 17.04 73.0983 19.2 72.965 20.72C72.8583 22.2133 72.565 23.4533 72.085 24.44C71.5517 25.56 70.725 26.4133 69.605 27C68.5117 27.5867 66.9783 27.9733 65.005 28.16V14.24ZM61.085 28.32C57.1917 28.32 54.3917 27.8933 52.685 27.04C51.805 26.6133 51.1117 26.04 50.605 25.32C50.0983 24.6 49.725 23.7067 49.485 22.64C49.2717 21.7067 49.1383 20.64 49.085 19.44C49.0317 18.2133 49.005 16.48 49.005 14.24C49.005 11.44 49.0583 9.29333 49.165 7.8C49.2983 6.30667 49.605 5.05333 50.085 4.04C50.6183 2.94666 51.4317 2.10666 52.525 1.52C53.6183 0.933332 55.165 0.533333 57.165 0.319999V14.24C57.165 15.8133 57.1917 17.32 57.245 18.76C57.2983 19.8533 57.4317 20.6533 57.645 21.16C57.885 21.6667 58.2717 21.96 58.805 22.04C59.2583 22.1467 60.0183 22.2 61.085 22.2C62.1783 22.2 62.925 22.16 63.325 22.08V28.28C63.085 28.3067 62.725 28.32 62.245 28.32H61.085ZM77.6547 0.479999H85.6547V28H77.6547V0.479999ZM88.9347 18.64H87.3347V12.52H88.6947C89.5214 12.52 90.148 12.4933 90.5747 12.44C91.0014 12.36 91.3347 12.2267 91.5747 12.04C91.788 11.8533 91.9347 11.5733 92.0147 11.2C92.0947 10.8267 92.1347 10.28 92.1347 9.56C92.1347 8.84 92.0947 8.29333 92.0147 7.92C91.9347 7.52 91.788 7.22667 91.5747 7.04C91.3614 6.85333 91.0414 6.73333 90.6147 6.68C90.2147 6.62667 89.5747 6.6 88.6947 6.6H87.3347V0.479999H91.4547C93.348 0.479999 94.8814 0.666666 96.0547 1.04C97.228 1.41333 98.1347 1.98667 98.7747 2.76C99.3614 3.48 99.748 4.37333 99.9347 5.44C100.148 6.50667 100.255 7.88 100.255 9.56C100.255 11.72 100.055 13.3867 99.6547 14.56C99.0947 16.0533 98.108 17.1067 96.6947 17.72L100.855 28H92.4547L88.9347 18.64ZM104.608 0.479999H112.608V28H104.608V0.479999ZM114.288 0.479999H124.448V6.6H114.288V0.479999ZM114.288 11.04H122.568V17.16H114.288V11.04ZM114.288 21.88H124.448V28H114.288V21.88Z" fill="#5D5D6D"/>
</svg>
